<svg xmlns="http://www.w3.org/2000/svg" width="36" height="36" viewBox="0 0 36 36"><path fill="#72cba7" d="M18 36a17.7 17.7 0 0 1-9.09-2.47 18.29 18.29 0 0 1-3.64-2.8 18.29 18.29 0 0 1-4.62-7.94 17.7 17.7 0 0 1 0-9.58 18.23 18.23 0 0 1 4.62-7.94A18.29 18.29 0 0 1 13.21.65 17.7 17.7 0 0 1 18 0c2.47 0 4.81.47 7 1.42 2.2.95 4.11 2.23 5.73 3.85A18.22 18.22 0 0 1 34.58 11 17.42 17.42 0 0 1 36 18a17.7 17.7 0 0 1-2.47 9.09 18.29 18.29 0 0 1-2.8 3.64 18.29 18.29 0 0 1-7.94 4.62A17.7 17.7 0 0 1 18 36zm8.68-25.42H9.61a.61.61 0 0 0-.43.17c-.12.1-.18.25-.18.45v1.9c0 .1.04.15.11.15l8.96 5.11.07.04c.05 0 .09-.02.11-.04l8.68-5.11c.05-.03.08-.04.11-.04l.1-.03c.1 0 .15-.05.15-.15V11.2c0-.2-.06-.35-.18-.45a.63.63 0 0 0-.43-.17zm-12.24 7.67c.02-.02.03-.06.03-.11 0-.07-.02-.1-.07-.1l-5.15-2.96a.28.28 0 0 0-.18 0c-.05 0-.07.04-.07.11v7.74c0 .07.04.12.11.15h.07c.05 0 .07-.02.07-.04zm6.26.58c-.02-.07-.08-.09-.18-.04l-1.98 1.15c-.24.15-.49.15-.76 0l-1.72-.97c-.08-.05-.14-.05-.18 0l-6.59 6.12c-.03.03-.04.07-.04.15 0 .02.03.06.07.1.15.05.24.08.29.08H26.5c.04 0 .09-.03.14-.08 0-.09-.01-.15-.04-.18zm6.48-3.89h-.14l-4.9 2.92c-.05 0-.07.03-.07.1-.03.03-.01.06.03.11l4.9 5.29c.05.05.08.08.11.08h.07c.07-.08.11-.12.11-.15v-8.21c0-.04-.04-.09-.11-.14z"/></svg>