<svg xmlns="http://www.w3.org/2000/svg" width="96.8" height="96.8" viewBox="0 0 96.8 96.8"><path fill="none" stroke="#6e8898" stroke-miterlimit="50" stroke-width=".8" d="M.4 48.4a48 48 0 1 1 96 0 48 48 0 0 1-96 0z"/><path fill="#6e8898" d="M64.24 59.63l-6.48-2.81c-.16-.07-.32-.26-.47-.51h4.33c.08.01 1.86.17 3.29-.45.54-.23.95-.69 1.11-1.26a2 2 0 0 0-.28-1.68c-1.24-1.76-4.13-6.36-4.22-11.03 0-.08-.26-8.02-8.1-8.08a9.1 9.1 0 0 0-3.19.57 5.84 5.84 0 0 0-.99-1.64c-1.36-1.55-3.58-2.34-6.58-2.34s-5.21.79-6.57 2.34a5.96 5.96 0 0 0-1.39 4.33v3.53a2.7 2.7 0 0 0-.66 1.74V45c0 .81.36 1.56.99 2.06a14.18 14.18 0 0 0 2.32 4.81v2.19c0 .64-.35 1.23-.91 1.54l-5.92 3.23a5.99 5.99 0 0 0-3.12 5.26v2.81h39.82v-2.45c0-2.06-1.14-3.9-2.98-4.82zm-7.64 5.94H28.73v-1.48c0-1.71.93-3.28 2.43-4.09l5.92-3.23a3.08 3.08 0 0 0 1.6-2.71v-2.67l-.15-.18a12.44 12.44 0 0 1-2.27-4.69l-.06-.26-.22-.15a1.31 1.31 0 0 1-.62-1.11v-2.65c0-.38.16-.72.45-.98l.22-.2v-4.13l-.01-.09c0-.02-.23-1.86 1.07-3.33 1.1-1.26 2.97-1.89 5.57-1.89s4.47.63 5.57 1.87c.55.62.82 1.31.96 1.91l.03.13.03.14.02.15.01.11.03.23v.02l.01.2v.21l-.01.25-.01 4.22.22.2c.29.26.44.6.44.98V45c0 .58-.38 1.09-.94 1.26l-.33.1-.11.33a13.56 13.56 0 0 1-2.43 4.51l-.17.19v2.73c0 .17.02.34.04.5l.03.1c.02.13.06.26.1.39l.03.09c.05.14.11.27.18.4l.03.05c.09.17.2.33.33.48l.15.18h.03c.23.23.49.42.78.57l6.34 3.17a4.63 4.63 0 0 1 2.58 4.17zm9.29 0h-7.96v-1.35a5.96 5.96 0 0 0-3.31-5.36l-4.55-2.27a1.15 1.15 0 0 0-1.06-1.61h-1.47a.87.87 0 0 1-.07-.17l-.1-.23a1.7 1.7 0 0 1-.06-.46v-2.24l.48-.63a15.35 15.35 0 0 0 1.96-3.85 2.63 2.63 0 0 0 1.54-2.4v-2.65a2.7 2.7 0 0 0-.66-1.75v-3.53c.01-.16.05-.71-.06-1.42.86-.33 1.81-.5 2.85-.51 6.53.05 6.77 6.51 6.77 6.78.1 5.03 3.15 9.91 4.46 11.77.11.16.15.36.09.55a.6.6 0 0 1-.35.4 6.42 6.42 0 0 1-2.71.34h-4.56c-.43 0-.82.22-1.04.58a1.2 1.2 0 0 0-.06 1.19c.21.42.57.98 1.18 1.28l6.47 2.8a4.03 4.03 0 0 1 2.22 3.62z"/></svg>