<svg xmlns="http://www.w3.org/2000/svg" width="96.8" height="96.8" viewBox="0 0 96.8 96.8"><path fill="none" stroke="#6e8898" stroke-miterlimit="50" stroke-width=".8" d="M.4 48.4a48 48 0 1 1 96 0 48 48 0 0 1-96 0z"/><path fill="#6e8898" d="M56.68 30.4H41.12a2.72 2.72 0 0 0-2.72 2.72v31.56c0 1.5 1.22 2.72 2.72 2.72h15.56c1.5 0 2.72-1.22 2.72-2.72V33.12c0-1.5-1.22-2.72-2.72-2.72zm-17.04 4.93h18.52v23.44H39.64zm1.48-3.7h15.56c.82 0 1.48.67 1.48 1.49v.98H39.64v-.98c0-.82.66-1.49 1.48-1.49zm15.56 34.54H41.12c-.82 0-1.48-.67-1.48-1.49V60h18.52v4.68c0 .82-.66 1.49-1.48 1.49z"/><path fill="#6e8898" d="M48.9 60.4a2.5 2.5 0 1 0 0 5 2.5 2.5 0 0 0 0-5zm0 3.75a1.25 1.25 0 1 1 0-2.5 1.25 1.25 0 0 1 0 2.5zM46.07 33.4h2.66c.37 0 .67-.22.67-.5s-.3-.5-.67-.5h-2.66c-.37 0-.67.22-.67.5s.3.5.67.5zM51.07 33.4h.66c.37 0 .67-.22.67-.5s-.3-.5-.67-.5h-.66c-.37 0-.67.22-.67.5s.3.5.67.5z"/></svg>