<svg xmlns="http://www.w3.org/2000/svg" width="96.8" height="96.8" viewBox="0 0 96.8 96.8"><path fill="none" stroke="#6e8898" stroke-miterlimit="50" stroke-width=".8" d="M.4 48.4a48 48 0 1 1 96 0 48 48 0 0 1-96 0z"/><path fill="#6e8898" d="M65.16 64.4H35.64a3.22 3.22 0 0 1-3.24-3.2V39c0-1.77 1.45-3.2 3.24-3.2h10.23l.07-.03 13.89-4.34a.61.61 0 0 1 .46.04.6.6 0 0 1 .29.36l1.04 3.97h3.54A3.22 3.22 0 0 1 68.4 39v22.2c0 1.76-1.45 3.2-3.24 3.2zM33.58 39v22.2c0 1.12.92 2.04 2.06 2.04h29.52c1.14 0 2.06-.92 2.06-2.04v-6.89H56.28a2.58 2.58 0 0 1-2.59-2.56v-3.31a2.57 2.57 0 0 1 2.59-2.55h10.94V39c0-1.13-.92-2.04-2.06-2.04H35.64c-1.14 0-2.06.91-2.06 2.04zm22.7 8.05a1.4 1.4 0 0 0-1.42 1.39v3.31c0 .77.64 1.4 1.42 1.4h10.94v-6.1zM49.75 35.8h10.66l-.81-3.08zm8.4 16.36a2.07 2.07 0 0 1-2.08-2.06c0-1.14.93-2.06 2.08-2.06 1.16 0 2.09.92 2.09 2.06 0 1.14-.93 2.06-2.09 2.06zm0-2.96a.9.9 0 0 0-.91.9c0 .5.41.9.91.9a.9.9 0 0 0 .92-.9.9.9 0 0 0-.92-.9z"/></svg>