<?xml version="1.0" encoding="UTF-8"?>
<svg width="36px" height="36px" viewBox="0 0 36 36" version="1.1" xmlns="http://www.w3.org/2000/svg" xmlns:xlink="http://www.w3.org/1999/xlink">
    <!-- Generator: Sketch 43.1 (39012) - http://www.bohemiancoding.com/sketch -->
    <title>placeholder (1)</title>
    <desc>Created with Sketch.</desc>
    <defs></defs>
    <g id="Page-1" stroke="none" stroke-width="1" fill="none" fill-rule="evenodd">
        <g id="768px" transform="translate(-414.000000, -4315.000000)">
            <g id="Group-33-Copy" transform="translate(53.000000, 4089.000000)">
                <g id="Group-29" transform="translate(361.000000, 214.000000)">
                    <g id="placeholder-(1)" transform="translate(0.000000, 12.000000)">
                        <path d="M17.9997,0 C8.05885431,0 0,8.05904059 0,17.99982 C0,27.9403594 8.05885431,36 17.9997,36 C27.9405457,36 36,27.9403594 36,17.99982 C36,8.05904059 27.9405457,0 17.9997,0 Z" id="Path" fill="#72CBA7"></path>
                        <path d="M17.3872103,8.00122263 C17.3995869,8.00122263 17.4117298,8.00061131 17.4238728,8 C17.4360158,8.00061131 17.448042,8.00122263 17.4605353,8.00122263 C20.4115143,8.0500055 22.8120891,10.603954 22.8120891,13.6947586 C22.8120891,17.4736585 18.9562242,21.3001186 17.4238728,22.6711741 C17.3214748,22.579477 17.2079846,22.4761649 17.0865547,22.3629495 C17.084453,22.3609933 17.0825849,22.3594038 17.0808335,22.3575699 C15.3850189,20.7796457 12.0357733,17.2170288 12.0357733,13.6947586 C12.0356565,10.603954 14.4364649,8.05012776 17.3872103,8.00122263 Z M17.4238144,16.9248511 C19.0358995,16.9248511 20.3427527,15.5563914 20.3427527,13.8683107 C20.3427527,12.18023 19.0358995,10.8117702 17.4238144,10.8117702 C15.8117294,10.8117702 14.5048762,12.18023 14.5048762,13.8683107 C14.5048762,15.5563914 15.8117294,16.9248511 17.4238144,16.9248511 Z M17.4998832,28 C14.2699659,28 11,27.0297221 11,25.1759729 C11,23.874974 12.6101132,23.0098422 14.6859799,22.6090646 C15.0875157,23.0317272 15.4675678,23.4043843 15.8010329,23.715421 C13.5398689,23.9798755 12.2113796,24.729469 12.2113796,25.1756061 C12.2113796,25.7238327 14.2190587,26.7312785 17.4998832,26.7312785 C20.7807077,26.7312785 22.7887372,25.7238327 22.7887372,25.1756061 C22.7887372,24.7202993 21.4042033,23.9518773 19.0609574,23.7020944 C19.3973415,23.3875121 19.7804293,23.0114316 20.1850009,22.5843675 C22.3232172,22.9741414 24,23.8479539 24,25.1759729 C24,27.0297221 20.7300341,28 17.4998832,28 Z" id="Shape" fill="#FFFFFF" fill-rule="nonzero"></path>
                    </g>
                </g>
            </g>
        </g>
    </g>
</svg>