<svg xmlns="http://www.w3.org/2000/svg" width="36" height="36" viewBox="0 0 36 36"><path fill="#72cba7" d="M28.44 23.36a.77.77 0 0 0-.18-.39 2.5 2.5 0 0 0-.32-.33l-4.25-2.48-.04-.04a1.3 1.3 0 0 0-.57-.1c-.39 0-.69.12-.9.36l-1.26 1.26a.41.41 0 0 1-.29.1 3.53 3.53 0 0 1-1.05-.39 13.15 13.15 0 0 1-3.06-2.34c-.48-.51-.92-1.01-1.33-1.51-.33-.41-.65-.86-.93-1.34-.29-.48-.45-.9-.47-1.26 0-.12.03-.21.11-.28l1.08-1.08c.19-.2.31-.43.36-.71.04-.27.01-.53-.11-.77l-2.34-4.39c-.19-.39-.48-.58-.87-.58-.24 0-.48.1-.72.29L8.42 10.3c-.14.12-.27.29-.37.52-.11.23-.18.44-.2.63v.9l.47 2.23c.31 1.49.85 2.6 1.63 3.35.78.74 1.93 2.15 3.44 4.21 1.3 1.3 2.51 2.32 3.64 3.06a18.7 18.7 0 0 0 3.04 1.67 10.14 10.14 0 0 0 3.62.85l.29-.02.14-.02a2.07 2.07 0 0 0 1.15-.57l2.88-2.88c.27-.27.36-.55.29-.87zM18 0c2.47 0 4.81.47 7 1.42 2.2.95 4.11 2.23 5.73 3.85A18.22 18.22 0 0 1 34.58 11 17.42 17.42 0 0 1 36 18a17.7 17.7 0 0 1-2.47 9.09 18.29 18.29 0 0 1-2.8 3.64 18.29 18.29 0 0 1-7.94 4.62 17.7 17.7 0 0 1-9.58 0 18.23 18.23 0 0 1-7.94-4.62 18.29 18.29 0 0 1-4.62-7.94 17.7 17.7 0 0 1 0-9.58 18.23 18.23 0 0 1 4.62-7.94A18.29 18.29 0 0 1 13.21.65 17.7 17.7 0 0 1 18 0z"/></svg>